<?xml version="1.0"?>
<svg xmlns="http://www.w3.org/2000/svg" height="512px" viewBox="-56 0 480 480" width="512px"><path d="m360 480c4.417969 0 8-3.582031 8-8v-464c0-4.417969-3.582031-8-8-8h-304c-2.519531 0-4.890625 1.1875-6.398438 3.199219l-48 64c-1.039062 1.386719-1.601562 3.070312-1.601562 4.800781v400c0 4.417969 3.582031 8 8 8zm-344-405.335938 44-58.664062h292v448h-336zm0 0" fill="#757575"/><path d="m312 208h-256c-4.417969 0-8 3.582031-8 8v208c0 4.417969 3.582031 8 8 8h256c4.417969 0 8-3.582031 8-8v-208c0-4.417969-3.582031-8-8-8zm-8 208h-240v-144h240zm0-160h-240v-32h240zm0 0" fill="#757575"/><path d="m264 112h32c4.417969 0 8-3.582031 8-8v-64c0-4.417969-3.582031-8-8-8h-32c-4.417969 0-8 3.582031-8 8v64c0 4.417969 3.582031 8 8 8zm8-64h16v48h-16zm0 0" fill="#757575"/><path d="m200 112h32c4.417969 0 8-3.582031 8-8v-64c0-4.417969-3.582031-8-8-8h-32c-4.417969 0-8 3.582031-8 8v64c0 4.417969 3.582031 8 8 8zm8-64h16v48h-16zm0 0" fill="#757575"/><path d="m136 112h32c4.417969 0 8-3.582031 8-8v-64c0-4.417969-3.582031-8-8-8h-32c-4.417969 0-8 3.582031-8 8v64c0 4.417969 3.582031 8 8 8zm8-64h16v48h-16zm0 0" fill="#757575"/><path d="m72 112h32c4.417969 0 8-3.582031 8-8v-64c0-4.417969-3.582031-8-8-8h-32c-4.417969 0-8 3.582031-8 8v64c0 4.417969 3.582031 8 8 8zm8-64h16v48h-16zm0 0" fill="#757575"/></svg>
