<?xml version="1.0" encoding="iso-8859-1"?>
<!-- Generator: Adobe Illustrator 19.0.0, SVG Export Plug-In . SVG Version: 6.00 Build 0)  -->
<svg xmlns="http://www.w3.org/2000/svg" xmlns:xlink="http://www.w3.org/1999/xlink" version="1.1" id="Capa_1" x="0px" y="0px" viewBox="0 0 345.5 345.5" style="enable-background:new 0 0 345.5 345.5;" xml:space="preserve" width="512px" height="512px">
<g>
	<g>
		<g>
			<path d="M343.4,67.95l-63.6-63.6c-1.2-1.2-3.2-2-5.2-2s-3.6,0.8-5.2,2l-60,60l-22.8-22.8c-2.8-2.8-7.2-2.8-10,0L25.8,192.75     c-34.4,34.4-34.4,90.4,0,124.8c16.4,16.4,38.8,25.6,62.4,25.6c23.6,0,45.6-9.2,62.4-26l133.6-133.6l17.2-17.2     c2.8-2.8,2.8-7.2,0-10l-18-18.4l60-60C346.2,75.15,346.2,70.75,343.4,67.95z M140.6,307.15c-14,14-32.4,21.6-52.4,21.6     s-38.4-7.6-52.4-21.6c-29.2-28.8-29.2-75.6,0-104.4l128.8-128.8l104.8,104.8L140.6,307.15z M286.6,161.55l-7.6,7.2L174.2,63.95     l7.6-7.2L286.6,161.55z M273,127.95l-53.6-53.6l55.2-54.8l53.6,53.6L273,127.95z" fill="#757575"/>
			<path d="M87.8,211.55c-11.6,0-22.4,4.4-30.8,12.8c-8.4,8.4-12.8,19.2-12.8,30.8c0,11.6,4.4,22.4,12.8,30.8     c8.4,8.4,19.2,12.8,30.8,12.8s22.4-4.4,30.8-12.8c8.4-8.4,12.8-19.2,12.8-30.8c0-11.6-4.4-22.4-12.8-30.8     C110.2,215.95,99.4,211.55,87.8,211.55z M108.6,276.35c-5.6,5.6-12.8,8.8-20.8,8.8s-15.2-3.2-20.8-8.8     c-5.6-5.6-8.8-12.8-8.8-20.8c0.4-8,3.2-15.6,8.8-21.2c5.6-5.6,12.8-8.4,20.8-8.4s15.2,3.2,20.8,8.8c5.6,5.6,8.8,12.8,8.8,20.8     C117.4,263.55,114.2,270.75,108.6,276.35z" fill="#757575"/>
			<path d="M293,93.95c1.2,1.2,3.2,2,5.2,2s3.6-0.8,5.2-2c2.8-2.8,2.8-7.2,0-10l-7.2-7.2c-2.8-2.8-7.2-2.8-10,0s-2.8,7.2,0,10     L293,93.95z" fill="#757575"/>
			<path d="M263.8,44.75c-2.8-2.8-7.2-2.8-10,0s-2.8,7.2,0,10l7.6,7.6c1.2,1.2,3.2,2,5.2,2s3.6-0.8,5.2-2c2.4-2.8,2.4-7.2-0.4-10     L263.8,44.75z" fill="#757575"/>
		</g>
	</g>
</g>
<g>
</g>
<g>
</g>
<g>
</g>
<g>
</g>
<g>
</g>
<g>
</g>
<g>
</g>
<g>
</g>
<g>
</g>
<g>
</g>
<g>
</g>
<g>
</g>
<g>
</g>
<g>
</g>
<g>
</g>
</svg>
